<svg id="Layer_1" data-name="Layer 1" xmlns="http://www.w3.org/2000/svg" viewBox="0 0 500 500">
  <defs>
    <style>
      .cls-1 {
        fill: #ccd2cc;
      }

      .cls-1, .cls-2, .cls-3, .cls-4, .cls-5 {
        stroke: #000;
        stroke-miterlimit: 10;
      }

      .cls-2 {
        fill: #b7b337;
      }

      .cls-3 {
        fill: #c4a7a3;
      }

      .cls-5 {
        fill: none;
        opacity: 0.5;
      }
    </style>
  </defs>
  <title>alien_placeholder</title>
  <path class="cls-1" d="M319.5,212.5a70,70,0,1,0-131.93,32.64c0,1.44-.07,2.9-.07,4.36,0,49.15,27.76,89,62,89s62-39.85,62-89c0-1.46,0-2.92-.07-4.36A69.78,69.78,0,0,0,319.5,212.5Z"/>
  <ellipse class="cls-2" cx="222.5" cy="230.5" rx="22" ry="17"/>
  <ellipse class="cls-3" cx="222.5" cy="230.5" rx="9" ry="17"/>
  <ellipse class="cls-4" cx="222.5" cy="230.5" rx="2" ry="5"/>
  <ellipse class="cls-2" cx="277.5" cy="230.5" rx="22" ry="17"/>
  <ellipse class="cls-3" cx="277.5" cy="230.5" rx="9" ry="17"/>
  <ellipse class="cls-4" cx="277.5" cy="230.5" rx="2" ry="5"/>
  <ellipse class="cls-4" cx="244.5" cy="259" rx="2" ry="8.5"/>
  <ellipse class="cls-4" cx="255.5" cy="259" rx="2" ry="8.5"/>
  <ellipse class="cls-4" cx="250.5" cy="301.5" rx="25" ry="4"/>
  <path class="cls-5" d="M199.73,198c21.78-8.35,37.48.52,44.49,6.83"/>
  <path class="cls-5" d="M256,205.85c17.61-15.29,35.4-12.33,44.14-8.8"/>
</svg>
