<?xml version="1.0" encoding="utf-8"?>
<!-- Generator: Adobe Illustrator 22.0.1, SVG Export Plug-In . SVG Version: 6.00 Build 0)  -->
<svg version="1.1" xmlns="http://www.w3.org/2000/svg" xmlns:xlink="http://www.w3.org/1999/xlink" x="0px" y="0px"
	 viewBox="0 0 600 600" style="enable-background:new 0 0 600 600;" xml:space="preserve">
<style type="text/css">
	.st0{display:none;}
	.st1{fill:#7A7B74;}
	.st2{fill:#C4BCA1;}
	.st3{fill:#B7B298;}
	.st4{fill:#A7745F;}
	.st5{fill:#874D4A;}
	.st6{fill:#908369;}
</style>
<g id="Layer_1" class="st0">
	
		<image style="display:inline;overflow:visible;" width="1024" height="768" xlink:href="../../beb15feaa9fb259016b33d178746463e.jpg"  transform="matrix(0.5677 0 0 0.5677 8.6667 147)">
	</image>
</g>
<g id="Layer_2">
	<path class="st1" d="M25,506c0,0,111,80,551,30c0,0,40,1,0-131c0,0,45-227-9-288S233,54,163,99S30,382,30,382S14,463,25,506z"/>
	<image style="overflow:visible;" width="565" height="354" xlink:href="665C4955.png"  transform="matrix(1 0 0 1 24 184)">
	</image>
	<image style="overflow:visible;" width="462" height="84" xlink:href="665C495B.png"  transform="matrix(1 0 0 1 62 453)">
	</image>
	<path class="st2" d="M65,500c0,0,42-52,131-57s30,41,30,41l-43,36C183,520,42,520,65,500z"/>
	<path class="st3" d="M314,468c0,0,52,62,83,64s120,8,154,0s-80-58-80-58s-117-25-129-22S314,468,314,468z"/>
	<path class="st4" d="M208.3,213.4c0,0,49.9-14.3,66.4-30.4c0,0,51,45.1,67.5,49.5c16.5,4.4,13.6,48.7,13.6,48.7
		s-26.4,44.6-20.6,50.9L275.9,418c0,0-9.1,9.4-26.8-8.5c-17.8-17.9-39.4-57-46.7-106.5C202.3,303,180.5,249.6,208.3,213.4z"/>
	<path class="st5" d="M359,242c0,0-37,64,0,94s77-8,77-8s27-31,21-42S382,210,359,242z"/>
	<path class="st5" d="M472,300c0,0,60,38,33,65s-35,33-41,34s-40,1-45-15s-7-30-4-34S454,281,472,300z"/>
	<path class="st5" d="M460,402c0,0-10,36,19,36s42-10,42-10s11-5,18-37s-34-22-34-22L460,402z"/>
	<path class="st5" d="M499,441c0,0,2,54,43,35s20-54,20-54s-13-10-26-9S499,441,499,441z"/>
	<path class="st5" d="M150,231c0,0,13-1,19,9s23,48,15,60s-24,29-28,29s-27,7-42-10s-21-16-15-34s13-33,13-33s10-17,23-16
		S150,231,150,231z"/>
	<path class="st5" d="M85,294c0,0,35,29,39,48s-27,40-27,40s-17,0-25-12l-1-5c0,0-12.3-3-14.7-8.5c-2.3-5.5-2.4-22.3,6.1-34.9
		S85,294,85,294z"/>
	<path class="st5" d="M58,361c0,0,40,31,39,40s-3,29-7,29s-18,9-29-8c0,0-14-2-16-8s-9-15-1-30S58,361,58,361z"/>
	<path class="st5" d="M44,416c0,0,27,12,30,28s-14,25-21,21s-21-13-21-13s-5.5-11.1,1.3-24.5C40,414,44,416,44,416z"/>
	<path class="st1" d="M367.9,330.4c0,0,90.5,79.8,90.5,119.1s-47.6,21.4-47.6,21.4l-21.4-6l-0.6-4.1l-35.1,0.5l19.1-11.9h-19.1
		l23.8-16.7l-28.6,11.9l17.9-23.8L340.5,440l11.9-34.5l-3.6-6c0,0,0-67.9,9.5-66.7C367.9,334,367.9,330.4,367.9,330.4z"/>
	<path class="st1" d="M186.3,320.5c0,0-30.6-9.7-54.2,29.2s-33.3,69.5-33.3,69.5s-13.9,48.6,11.1,54.2s49-4.5,49-4.5l-3.2-8
		l26.9,3.3l-25.6-18.6l29.2,12.5l-23.6-23.6l34.7,15.3l-25-23.6l32,23.6c0,0-22.2-27.8-16.7-38.9l4.2-50L186.3,320.5z"/>
	<image style="overflow:visible;" width="90" height="75" xlink:href="665C495D.png"  transform="matrix(1 0 0 1 354 264)">
	</image>
	<image style="overflow:visible;" width="47" height="39" xlink:href="665C495F.png"  transform="matrix(1 0 0 1 423 351)">
	</image>
	<image style="overflow:visible;" width="33" height="27" xlink:href="665C495C.png"  transform="matrix(1 0 0 1 462 405)">
	</image>
	<image style="overflow:visible;" width="33" height="27" xlink:href="665C4954.png"  transform="matrix(1 0 0 1 504 448)">
	</image>
	<image style="overflow:visible;" width="54" height="46" xlink:href="665C4957.png"  transform="matrix(1 0 0 1 114 279)">
	</image>
	<image style="overflow:visible;" width="32" height="39" xlink:href="665C4952.png"  transform="matrix(1 0 0 1 82 335)">
	</image>
	<image style="overflow:visible;" width="26" height="32" xlink:href="CB569994.png"  transform="matrix(1 0 0 1 66 396)">
	</image>
	<image style="overflow:visible;" width="26" height="32" xlink:href="CB569993.png"  transform="matrix(1 0 0 1 44 431)">
	</image>
	<image style="overflow:visible;" width="65" height="154" xlink:href="CB5699AC.png"  transform="matrix(1 0 0 1 230 231)">
	</image>
	<path class="st6" d="M270.2,457.2c0,0,4.6,26.4,31,14.9c0,0,21.8-41.4,31-50.5s25.3-60.9,25.3-60.9s6.9-32.2,0-43.7
		c-6.9-11.5-16.1,0-16.1,0s-27.6,24.1-35.6,43.7c-8,19.5-23,48.2-29.9,83.9L270.2,457.2z"/>
	<path class="st6" d="M176.2,281.2c0,0,44.8,28,83.9,137.1c0,0,14,30.8,26.6,30.8c12.6,0,2.8,26.6-8.4,32.2
		c-11.2,5.6-26.6,12.6-43.4-21s-54.6-74.1-64.4-104.9c-9.8-30.8-7-74.1-7-74.1S167.9,274.3,176.2,281.2z"/>
</g>
</svg>
