<?xml version="1.0" encoding="utf-8"?>
<!-- Generator: Adobe Illustrator 22.0.1, SVG Export Plug-In . SVG Version: 6.00 Build 0)  -->
<svg version="1.1" xmlns="http://www.w3.org/2000/svg" xmlns:xlink="http://www.w3.org/1999/xlink" x="0px" y="0px"
	 viewBox="0 0 546 600" style="enable-background:new 0 0 546 600;" xml:space="preserve">
<style type="text/css">
	.st0{display:none;}
	.st1{fill:#515151;stroke:#000000;stroke-miterlimit:10;}
	.st2{fill:#282828;}
	.st3{fill:#515151;}
	.st4{fill:#606060;stroke:#000000;stroke-miterlimit:10;}
	.st5{fill:none;stroke:#000000;stroke-miterlimit:10;}
	.st6{fill:#9A6049;stroke:#000000;stroke-miterlimit:10;}
	.st7{fill:#FFFFFF;}
	.st8{fill:#BA4B2D;stroke:#BC700C;stroke-miterlimit:10;}
	.st9{fill:none;stroke:#BC700C;stroke-linecap:round;stroke-miterlimit:10;}
	.st10{stroke:#000000;stroke-miterlimit:10;}
</style>
<g id="Layer_1" class="st0">
	
		<image style="display:inline;overflow:visible;" width="1002" height="500" xlink:href="../../hero_Starship-Troopers-image.jpg"  transform="matrix(0.5409 0 0 0.5409 38 123)">
	</image>
</g>
<g id="Layer_3">
	<path class="st1" d="M40.5,433.6c0,0-17.3-4.3-21.6-17.3S1.6,337.7,4.6,283.1c0,0,3-7,11.6-6.5c0,0,18.2-111.8,68.6-159.3l4.7-2.9
		c0,0,23.1-63.4,92.6-94s159.2-9,159.2-9S435,25.9,473.5,133.2c0,0,32.8,11.5,30.6,42.9c0,0,5.8,8.3,6.1,22v10.8
		c0,0,13.7,26.7,13,56.2l0,21.3l15.1,0.4c0,0,5.8,53,0,91.1c-5.8,38.2-19.8,60.9-19.8,60.9s-8.6,5.8-18.4,9
		c-9.7,3.2-27.7,8.6-27.7,8.6s-20.2,24.5-39.3,37.1c0,0-1.4,17.3-3.2,17.7s-10.4-5.4-10.4-5.4l-7.2-12.2l-12.6,6.8
		c0,0-31.7,63.8-80,91.1c-48.3,27.4-114.9-6.1-114.9-6.1s-22.7-10.8-33.5-29.2c0,0-5.8-22-10.8-24.9s-27.7-34.6-27.7-34.6
		s-10.4-10.8-12.2-5.8l0.4,8.3l-26.7-0.4l-7.6-11.2c0,0-25.6-10.4-34.6-19.5C43.1,459.2,38.7,457.4,40.5,433.6z"/>
	<path class="st2" d="M32.2,230.9c0,0,71.7-19.5,254-14c182.3,5.4,212.5,31,212.5,31l15.1,40.7h-39.3l-2.9-27.7
		c0,0-4.7-16.9-65.6-15.8c0,0-168.6-14-312,1.4l-41.8,4.3c0,0-20.5,1.8-22-7.6C29,233.8,32.2,230.9,32.2,230.9z"/>
	<path class="st3" d="M15.7,283.1c0,0,24.6,9.2,36.7,10c12.2,0.8,10.5,10,10.5,10s-8.6-5.1-16.8-1.4c-8.1,3.8-30.5-3.2-30.5-3.2
		s-8.9-7.3-9.7-10C5.2,285.8,15.7,283.1,15.7,283.1z"/>
	<polyline class="st4" points="411.5,497.2 400.7,449.8 416.9,414.9 418.5,371.2 428.8,363.1 457.2,360.6 463.7,305 476.6,290.9 
		521.4,288.1 	"/>
	<polyline class="st1" points="62.7,299.7 67.1,358.8 96.3,366.7 103.5,408.5 118.3,444.8 115.4,460.7 116.9,490.2 119,501 	"/>
	<path class="st3" d="M403.8,463.5l-9.3,14.1c0,0-54.8,58.7-70.6,64.5c-15.8,5.8-65.6,1.8-65.6,1.8s-53.3-7.6-74.9-24.1
		s-67.9-56.3-67.9-56.3"/>
	<path d="M119,247.4c0,0,19.1,41.5,10.4,57.5s-17.3,29.7-17.3,29.7l23.1,119.6c0,0-4.6,12.6-11.5,5.8c-6.9-6.8-22.4-64.2-22.4-64.2
		l-48.2-60.4l9.7-42.2l0.3-43.5C63.1,249.6,114.6,236.7,119,247.4z"/>
	<path class="st5" d="M465.2,132.9c0,0-234.9-34.6-326.4-10.8"/>
	<path class="st5" d="M315.9,25.6c0,0,17.6-14.9,43.7-7.2"/>
	<path class="st5" d="M186.5,136.5c56.1-9.4,57.8-3.6,57.8-3.6"/>
	<path class="st5" d="M186.5,156.4c56.1-9.4,57.8-3.6,57.8-3.6"/>
	<path class="st5" d="M186.5,175.6c56.1-9.4,57.8-3.6,57.8-3.6"/>
	<path class="st5" d="M330.9,134.1c-56.1-9.4-57.8-3.6-57.8-3.6"/>
	<path class="st5" d="M330.9,154c-56.1-9.4-57.8-3.6-57.8-3.6"/>
	<path class="st5" d="M330.9,173.2c-56.1-9.4-57.8-3.6-57.8-3.6"/>
</g>
<g id="Layer_2">
	<path class="st6" d="M128.4,249.6v48.6c0,0-5.4,25.4-21.1,34.6l25.9,132.4l2.7,17.8c0,0,51.3,47.5,58.4,47.5c7,0,55.1,14,72.9,13
		s42.7,16.8,78.9-17.3s46.5-47,46.5-47v-31.9l18.9-29.2l3.8-40l8.6-17.8l8.1-1.1c0,0,13-38.9,0-41.6c-13-2.7-15.7-18.4-15.7-18.4
		l-18.9-18.4l-34-31.3C363.4,249.6,345.1,235.6,128.4,249.6z"/>
	<path class="st7" d="M157,294.1c0,0,59.8-9,66.8-5.6c0,0-1.8-28.3-16.8-28.3S179.7,261.5,157,294.1z"/>
	<path class="st7" d="M296.1,277.2c0,0,31-41.2,70.8,9C366.8,286.2,310.7,295.5,296.1,277.2z"/>
	<path class="st5" d="M253.7,270.4c0,0,0.8,42.7-5.4,48.1c-6.2,5.4-14.6,14.9-7.6,21.6"/>
	<path d="M265.4,347.4c0,0,17-2.7,21.6,1.6s-7.3,6.5-7.3,6.5s-15.1,0.6-16.2-2.9c-1.1-3.6,0-4.9,0-4.9L265.4,347.4z"/>
	<path d="M228.1,348.2c0,0,12.4-1.3,15.4,2.8c3,4.2-3.2,7.4-3.2,7.4s-12.4,0.9-14.6-2.9C223.5,351.7,228.1,348.2,228.1,348.2z"/>
	<path class="st5" d="M299.9,336.9c0,0,34.9,30.5,34.6,72.7"/>
	<path class="st5" d="M225.1,331.5c0,0-30,13.8-30.8,61.2"/>
	<path class="st8" d="M200.8,436.6c0,0,4.6-67,56.5-42.1c0,0,54.6-19.7,62.4,21.6c0,0,19.2,64-16.5,97.8s-93.5-3-93.5-3
		s-4.3-3.5-8.9-29.4c0,0,0.4-5.7,0.7-13.3C202,457.4,202.2,442.9,200.8,436.6z"/>
	<path class="st9" d="M324.2,467.9c0,0-1.5-0.8-6.9,11.3c-5.3,12.1-30,20.7-37.2,21.9c-7.2,1.2-44.1,1.4-51.8,0
		c-7.7-1.4-21.8-28.5-21.8-28.5l-2.8-7.9"/>
	<path class="st7" d="M213.2,434.4c0,0,15.4-9.2,29.2-8.1c13.8,1.1,46.7-1.9,46.7-1.9s18.1,0.8,19.5,3.8c0,0,1.4-9.7-4.9-13.8
		c-6.2-4.1-12.4-12.2-19.5-12.4c-7-0.3-28.4-3.2-35.4,0c-7,3.2-29.7,3.8-31.6,7.6C215.4,413.3,212.1,427.4,213.2,434.4z"/>
	<path class="st7" d="M218.3,479.5c0,0,67-2.2,69.7-3c2.7-0.8,15.7,6.2,15.7,6.2s-0.9,15-13.5,16.7c-12.6,1.8-61.1-2.7-62.1-4.1
		S216.2,491.4,218.3,479.5z"/>
	<circle class="st10" cx="327.5" cy="275.9" r="10.3"/>
	<circle class="st10" cx="196.7" cy="275.9" r="10.3"/>
	<path class="st6" d="M124.4,122.1"/>
</g>
</svg>
